<svg fill="none" xmlns="http://www.w3.org/2000/svg" viewBox="0 0 32 32"><g clip-path="url(#clip0_105_51371)" fill-rule="evenodd" clip-rule="evenodd" fill="#17243E"><path d="M22.932 22.845l-8.022-5.668-5.755-8.022 8.284 5.406 5.493 8.284zm-6.016-6.191a1.105 1.105 0 000-1.57 1.105 1.105 0 00-1.57 0 1.105 1.105 0 000 1.57 1.105 1.105 0 001.57 0z"/><path d="M0 16.044C0 7.15 7.15 0 16.044 0c8.806 0 16.043 7.15 16.043 16.044 0 8.893-7.15 16.043-16.043 16.043A16.001 16.001 0 010 16.044zm27.117-9.679L25.46 4.708l-1.569 3.14 3.226-1.483zM16.044 4.708l2.092-3.4h-4.185l2.093 3.4zM8.196 8.11L6.714 4.796 5.057 6.452l3.14 1.657zm-6.714 5.755v4.185l3.4-2.093-3.4-2.092zM4.796 25.46l1.656 1.657 1.657-3.139-3.313 1.482zm11.335 2.006l-2.093 3.4h4.185l-2.092-3.4zM5.668 16.044A10.345 10.345 0 0016.044 26.42c5.667 0 10.376-4.709 10.376-10.376A10.345 10.345 0 0016.044 5.668 10.345 10.345 0 005.668 16.044zm21.624 9.416l-3.14-1.656 1.483 3.313 1.657-1.657zm3.487-11.683l-3.4 2.092 3.4 2.093v-4.185z"/></g><defs><clipPath id="clip0_105_51371"><path fill="#fff" d="M0 0h32v32H0z"/></clipPath></defs></svg>